# xmcd
#
# Track frame offsets:
#	150
#	14161
#	32365
#	52191
#	71205
#	89118
#	104599
#	123518
#	141178
#	158808
#	175807
#	195524
#	217052
#	238091
#	251334
#	270211
#	336602
#
# Disc length: 4724 seconds
#
# Revision: 2
# Processed by: cddbd v1.5.2PL0 Copyright (c) Steve Scherf et al.
# Submitted via: EasyCDDAExtractor 2010.6.0.0
#
DISCID=08127211
DTITLE=Various Artist - Lupe Fiasco's Food and Liquor
DYEAR=2006
DGENRE=Hip Hop/Rap
TTITLE0=Lupe Fiasco - Intro
TTITLE1=Lupe Fiasco feat. Sarah Green - Real
TTITLE2=Lupe Fiasco  feat. Gemini - Just Might Be OK
TTITLE3=Lupe Fiasco - Kick, Push
TTITLE4=Lupe Fiasco - I Gotcha
TTITLE5=Lupe Fiasco  feat. Jonah Matranga - The Instrumental
TTITLE6=Lupe Fiasco  feat. Gemini and Sarah Green - He Say She Say
TTITLE7=Lupe Fiasco - Sunshine
TTITLE8=Lupe Fiasco  feat. Jill Scott - Daydreamin'
TTITLE9=Lupe Fiasco - The Cool
TTITLE10=Lupe Fiasco - Hurt Me Soul
TTITLE11=Lupe Fiasco feat. Jay-Z - Pressure
TTITLE12=Lupe Fiasco feat. Matthew Santos - American Terrorist
TTITLE13=Lupe Fiasco - The Emperor's Soundtrack
TTITLE14=Lupe Fiasco - Kick, Push II
TTITLE15=Lupe Fiasco - Outro
TTITLE16=Lupe Fiasco - Data Track
EXTD=YEAR: 2006
EXTT0=
EXTT1=
EXTT2=
EXTT3=
EXTT4=
EXTT5=
EXTT6=
EXTT7=
EXTT8=
EXTT9=
EXTT10=
EXTT11=
EXTT12=
EXTT13=
EXTT14=
EXTT15=
EXTT16=
PLAYORDER=
